<?xml version="1.0" encoding="UTF-8" standalone="no"?>
<svg xmlns="http://www.w3.org/2000/svg" style="isolation:isolate" viewBox="0 0 500 500" width="500pt" height="500pt"><defs><clipPath id="_clipPath_wMX0JI0sRLpIMM3Fdfc6OB2b4luVwgHC"><rect width="500" height="500"/></clipPath></defs><g clip-path="url(#_clipPath_wMX0JI0sRLpIMM3Fdfc6OB2b4luVwgHC)"><g><g><path d=" M 155.842 131.005 L 158.973 128.558 C 184.88 108.409 216.352 97.759 249.999 97.759 C 283.644 97.759 315.129 108.409 341.036 128.558 L 344.169 131.005 L 427.778 93.578 C 384.344 44.247 320.898 12.962 250.004 12.962 C 179.111 12.962 115.668 44.251 72.23 93.578 L 155.842 131.005 Z " fill="rgb(244,114,49)"/><path d=" M 247.256 250.758 L 248.743 252.247 L 251.266 252.247 L 279.892 223.634 L 279.892 215.428 L 274.393 215.428 L 274.393 223.634 L 247.256 250.758 Z " fill="rgb(4,6,6)"/><path d=" M 282.531 265.079 L 268.486 279.125 L 280.148 357.97 C 278.425 358.634 276.703 359.032 274.978 359.296 L 263.055 279.125 L 277.099 265.079 L 277.099 252.225 L 282.531 252.225 L 282.531 265.079 Z " fill="rgb(4,6,6)"/><path d=" M 250.094 400.103 L 250.004 400.17 L 249.921 400.108 C 187.248 400.104 131.333 361.014 109.337 303.376 L 173.74 332.528 C 184.991 342.853 198.074 350.559 212.102 355.566 L 223.011 281.925 L 209.515 268.425 L 209.515 244.297 L 229.555 244.297 L 212.173 226.916 L 212.173 207.488 L 242.112 207.488 L 242.112 193.162 L 225.876 193.162 L 225.876 177.374 L 242.112 177.374 L 242.112 161.171 L 250.004 161.171 L 257.899 161.171 L 257.899 177.374 L 274.137 177.374 L 274.137 193.162 L 257.899 193.162 L 257.899 207.488 L 287.837 207.488 L 287.837 226.916 L 270.453 244.297 L 290.495 244.297 L 290.495 268.425 L 276.997 281.925 L 287.882 355.393 C 301.909 350.494 315.061 342.831 326.261 332.528 L 390.664 303.376 C 368.686 360.969 312.842 400.035 250.094 400.103 L 250.094 400.103 Z  M 485.807 226.385 L 403.916 262.825 L 358.065 283.497 C 361.377 273.029 363.233 262.164 363.364 251.164 L 408.552 230.625 L 481.169 198.29 C 478.918 187.956 475.736 177.884 472.161 167.944 L 399.41 200.677 L 359.126 218.698 C 356.608 209.689 353.163 201.207 348.79 193.255 L 388.808 175.5 L 461.294 143.034 C 456.523 133.626 451.355 124.482 445.39 115.869 L 373.171 148.334 L 329.043 168.079 C 318.046 157.345 304.529 148.732 289.689 143.167 C 275.907 138.396 262.92 136.143 249.935 136.143 C 237.08 136.143 224.093 138.396 210.578 143.034 C 195.472 148.732 181.954 157.345 170.955 168.079 L 126.83 148.334 L 54.61 115.869 C 48.647 124.482 43.48 133.626 38.708 143.034 L 151.212 193.255 C 146.838 201.207 143.394 209.689 140.877 218.698 L 100.591 200.677 L 27.842 167.944 C 24.265 177.884 21.085 187.956 18.831 198.29 L 91.447 230.758 L 136.636 251.164 C 136.769 262.164 138.623 273.029 141.935 283.497 L 96.219 262.825 L 14.193 226.385 C 13.398 234.071 13 242.022 13 249.973 C 13 380.895 119.143 487.038 250.066 487.038 C 380.86 487.038 487 380.895 487 249.973 C 487 242.022 486.603 234.071 485.807 226.385 Z " fill="rgb(244,114,49)"/></g></g></g></svg>
