<svg xmlns="http://www.w3.org/2000/svg" width="1200" zoomAndPan="magnify" viewBox="0 0 900 472.499986" height="630"
     preserveAspectRatio="xMidYMid meet" version="1.0"><defs><g/></defs><g fill="#ffffff" fill-opacity="1"><g transform="translate(12.876184, 270.90253)"><g><path d="M 53.625 1.15625 C 44.632812 1.15625 36.628906 -0.816406 29.609375 -4.765625 C 22.585938 -8.722656 17.132812 -14.25 13.25 -21.34375 C 9.375 -28.4375 7.4375 -36.484375 7.4375 -45.484375 C 7.4375 -54.484375 9.375 -62.507812 13.25 -69.5625 C 17.132812 -76.625 22.585938 -82.128906 29.609375 -86.078125 C 36.628906 -90.035156 44.632812 -92.015625 53.625 -92.015625 C 62.539062 -92.015625 70.507812 -90.035156 77.53125 -86.078125 C 84.550781 -82.128906 90.019531 -76.625 93.9375 -69.5625 C 97.851562 -62.507812 99.8125 -54.484375 99.8125 -45.484375 C 99.8125 -36.484375 97.851562 -28.4375 93.9375 -21.34375 C 90.019531 -14.25 84.570312 -8.722656 77.59375 -4.765625 C 70.613281 -0.816406 62.625 1.15625 53.625 1.15625 Z M 53.625 -9.765625 C 60.21875 -9.765625 66.148438 -11.332031 71.421875 -14.46875 C 76.691406 -17.613281 80.800781 -21.898438 83.75 -27.328125 C 86.695312 -32.765625 88.171875 -38.816406 88.171875 -45.484375 C 88.171875 -52.148438 86.695312 -58.195312 83.75 -63.625 C 80.800781 -69.0625 76.707031 -73.328125 71.46875 -76.421875 C 66.238281 -79.523438 60.289062 -81.078125 53.625 -81.078125 C 46.957031 -81.078125 41.003906 -79.523438 35.765625 -76.421875 C 30.535156 -73.328125 26.445312 -69.0625 23.5 -63.625 C 20.550781 -58.195312 19.078125 -52.148438 19.078125 -45.484375 C 19.078125 -38.816406 20.550781 -32.765625 23.5 -27.328125 C 26.445312 -21.898438 30.554688 -17.613281 35.828125 -14.46875 C 41.097656 -11.332031 47.03125 -9.765625 53.625 -9.765625 Z M 53.625 -9.765625 "/></g></g></g><g fill="#ffffff" fill-opacity="1"><g transform="translate(120.015565, 270.90253)"><g><path d="M 17.6875 0 C 15.976562 0 14.539062 -0.578125 13.375 -1.734375 C 12.21875 -2.898438 11.640625 -4.335938 11.640625 -6.046875 L 11.640625 -84.796875 C 11.640625 -86.585938 12.21875 -88.046875 13.375 -89.171875 C 14.539062 -90.296875 15.976562 -90.859375 17.6875 -90.859375 L 40.953125 -90.859375 C 46.691406 -90.859375 51.828125 -89.578125 56.359375 -87.015625 C 60.898438 -84.453125 64.429688 -80.882812 66.953125 -76.3125 C 69.472656 -71.738281 70.734375 -66.539062 70.734375 -60.71875 C 70.734375 -55.0625 69.472656 -50.019531 66.953125 -45.59375 C 64.429688 -41.175781 60.898438 -37.726562 56.359375 -35.25 C 51.828125 -32.769531 46.691406 -31.53125 40.953125 -31.53125 L 23.734375 -31.53125 L 23.734375 -6.046875 C 23.734375 -4.335938 23.171875 -2.898438 22.046875 -1.734375 C 20.921875 -0.578125 19.46875 0 17.6875 0 Z M 40.953125 -42.6875 C 46.222656 -42.6875 50.5625 -44.375 53.96875 -47.75 C 57.382812 -51.125 59.09375 -55.445312 59.09375 -60.71875 C 59.09375 -66.226562 57.382812 -70.765625 53.96875 -74.328125 C 50.5625 -77.898438 46.222656 -79.6875 40.953125 -79.6875 L 23.734375 -79.6875 L 23.734375 -42.6875 Z M 40.953125 -42.6875 "/></g></g></g><g fill="#ffffff" fill-opacity="1"><g transform="translate(192.488787, 270.90253)"><g><path d="M 17.6875 0 C 15.976562 0 14.539062 -0.578125 13.375 -1.734375 C 12.21875 -2.898438 11.640625 -4.335938 11.640625 -6.046875 L 11.640625 -84.796875 C 11.640625 -86.585938 12.21875 -88.046875 13.375 -89.171875 C 14.539062 -90.296875 15.976562 -90.859375 17.6875 -90.859375 L 70.265625 -90.859375 C 72.046875 -90.859375 73.476562 -90.332031 74.5625 -89.28125 C 75.644531 -88.238281 76.1875 -86.863281 76.1875 -85.15625 C 76.1875 -83.519531 75.644531 -82.195312 74.5625 -81.1875 C 73.476562 -80.1875 72.046875 -79.6875 70.265625 -79.6875 L 23.734375 -79.6875 L 23.734375 -51.421875 L 57.109375 -51.421875 C 58.816406 -51.421875 60.234375 -50.894531 61.359375 -49.84375 C 62.484375 -48.800781 63.046875 -47.460938 63.046875 -45.828125 C 63.046875 -44.203125 62.484375 -42.863281 61.359375 -41.8125 C 60.234375 -40.769531 58.816406 -40.25 57.109375 -40.25 L 23.734375 -40.25 L 23.734375 -11.171875 L 70.265625 -11.171875 C 72.046875 -11.171875 73.476562 -10.664062 74.5625 -9.65625 C 75.644531 -8.644531 76.1875 -7.328125 76.1875 -5.703125 C 76.1875 -3.992188 75.644531 -2.613281 74.5625 -1.5625 C 73.476562 -0.519531 72.046875 0 70.265625 0 Z M 17.6875 0 "/></g></g></g><g fill="#ffffff" fill-opacity="1"><g transform="translate(273.919346, 270.90253)"><g><path d="M 17.5625 0 C 15.851562 0 14.4375 -0.5625 13.3125 -1.6875 C 12.195312 -2.8125 11.640625 -4.265625 11.640625 -6.046875 L 11.640625 -84.796875 C 11.640625 -86.585938 12.195312 -88.046875 13.3125 -89.171875 C 14.4375 -90.296875 15.851562 -90.859375 17.5625 -90.859375 C 18.414062 -90.859375 19.269531 -90.644531 20.125 -90.21875 C 20.976562 -89.789062 21.675781 -89.265625 22.21875 -88.640625 L 72.9375 -21.171875 L 72.9375 -84.796875 C 72.9375 -86.585938 73.515625 -88.046875 74.671875 -89.171875 C 75.835938 -90.296875 77.273438 -90.859375 78.984375 -90.859375 C 80.691406 -90.859375 82.109375 -90.296875 83.234375 -89.171875 C 84.359375 -88.046875 84.921875 -86.585938 84.921875 -84.796875 L 84.921875 -6.046875 C 84.921875 -4.265625 84.359375 -2.8125 83.234375 -1.6875 C 82.109375 -0.5625 80.691406 0 78.984375 0 C 78.128906 0 77.253906 -0.171875 76.359375 -0.515625 C 75.472656 -0.867188 74.796875 -1.394531 74.328125 -2.09375 L 23.609375 -69.5625 L 23.609375 -6.046875 C 23.609375 -4.335938 23.046875 -2.898438 21.921875 -1.734375 C 20.796875 -0.578125 19.34375 0 17.5625 0 Z M 17.5625 0 "/></g></g></g><g fill="#ffffff" fill-opacity="1"><g transform="translate(370.472733, 270.90253)"><g><path d="M 40.484375 1.15625 C 32.960938 1.15625 26.117188 -0.546875 19.953125 -3.953125 C 13.785156 -7.367188 9.539062 -11.828125 7.21875 -17.328125 C 6.820312 -18.265625 6.625 -19.039062 6.625 -19.65625 C 6.625 -20.820312 7.050781 -21.847656 7.90625 -22.734375 C 8.757812 -23.628906 9.925781 -24.234375 11.40625 -24.546875 C 11.632812 -24.617188 12.019531 -24.65625 12.5625 -24.65625 C 13.800781 -24.65625 14.984375 -24.285156 16.109375 -23.546875 C 17.234375 -22.816406 18.066406 -21.832031 18.609375 -20.59375 C 20.003906 -17.5625 22.753906 -15 26.859375 -12.90625 C 30.972656 -10.8125 35.515625 -9.765625 40.484375 -9.765625 C 46.296875 -9.765625 51.21875 -11.101562 55.25 -13.78125 C 59.289062 -16.457031 61.3125 -20.125 61.3125 -24.78125 C 61.3125 -29.195312 59.601562 -32.972656 56.1875 -36.109375 C 52.769531 -39.253906 47.570312 -41.175781 40.59375 -41.875 C 30.976562 -42.8125 23.414062 -45.625 17.90625 -50.3125 C 12.40625 -55 9.65625 -60.875 9.65625 -67.9375 C 9.65625 -72.894531 11.066406 -77.175781 13.890625 -80.78125 C 16.722656 -84.394531 20.601562 -87.148438 25.53125 -89.046875 C 30.457031 -90.953125 35.984375 -91.90625 42.109375 -91.90625 C 48.773438 -91.90625 54.394531 -90.546875 58.96875 -87.828125 C 63.550781 -85.109375 67.429688 -81.226562 70.609375 -76.1875 C 71.535156 -74.71875 72 -73.320312 72 -72 C 72 -70.300781 71.226562 -68.90625 69.6875 -67.8125 C 68.832031 -67.269531 67.820312 -67 66.65625 -67 C 65.488281 -67 64.398438 -67.289062 63.390625 -67.875 C 62.390625 -68.457031 61.617188 -69.253906 61.078125 -70.265625 C 58.984375 -73.753906 56.363281 -76.410156 53.21875 -78.234375 C 50.082031 -80.054688 46.109375 -80.96875 41.296875 -80.96875 C 35.398438 -80.96875 30.628906 -79.820312 26.984375 -77.53125 C 23.335938 -75.238281 21.515625 -71.925781 21.515625 -67.59375 C 21.515625 -63.550781 23.144531 -60.171875 26.40625 -57.453125 C 29.664062 -54.742188 35.484375 -52.960938 43.859375 -52.109375 C 53.160156 -51.179688 60.367188 -48.367188 65.484375 -43.671875 C 70.609375 -38.984375 73.171875 -32.800781 73.171875 -25.125 C 73.171875 -19.539062 71.65625 -14.75 68.625 -10.75 C 65.601562 -6.757812 61.59375 -3.773438 56.59375 -1.796875 C 51.59375 0.171875 46.222656 1.15625 40.484375 1.15625 Z M 40.484375 1.15625 "/></g></g></g><g fill="#ffffff" fill-opacity="1"><g transform="translate(450.507369, 270.90253)"><g><path d="M 17.6875 0 C 16.050781 0 14.632812 -0.578125 13.4375 -1.734375 C 12.238281 -2.898438 11.640625 -4.335938 11.640625 -6.046875 L 11.640625 -84.796875 C 11.640625 -86.503906 12.238281 -87.941406 13.4375 -89.109375 C 14.632812 -90.273438 16.050781 -90.859375 17.6875 -90.859375 C 19.382812 -90.859375 20.816406 -90.273438 21.984375 -89.109375 C 23.148438 -87.941406 23.734375 -86.503906 23.734375 -84.796875 L 23.734375 -49.90625 L 62.234375 -88.40625 C 63.160156 -89.34375 63.992188 -89.984375 64.734375 -90.328125 C 65.472656 -90.679688 66.304688 -90.859375 67.234375 -90.859375 C 68.867188 -90.859375 70.128906 -90.367188 71.015625 -89.390625 C 71.910156 -88.421875 72.359375 -87.238281 72.359375 -85.84375 C 72.359375 -83.832031 71.617188 -82.085938 70.140625 -80.609375 L 40.484375 -50.828125 L 70.734375 -9.65625 C 71.503906 -8.570312 71.890625 -7.332031 71.890625 -5.9375 C 71.890625 -4.382812 71.382812 -3.003906 70.375 -1.796875 C 69.363281 -0.597656 68.085938 0 66.546875 0 C 64.367188 0 62.695312 -0.851562 61.53125 -2.5625 L 32.109375 -42.453125 L 23.734375 -34.078125 L 23.734375 -6.046875 C 23.734375 -4.335938 23.148438 -2.898438 21.984375 -1.734375 C 20.816406 -0.578125 19.382812 0 17.6875 0 Z M 17.6875 0 "/></g></g></g><g fill="#ffffff" fill-opacity="1"><g transform="translate(528.099057, 270.90253)"><g><path d="M 17.6875 0 C 15.976562 0 14.539062 -0.578125 13.375 -1.734375 C 12.21875 -2.898438 11.640625 -4.335938 11.640625 -6.046875 L 11.640625 -84.796875 C 11.640625 -86.585938 12.21875 -88.046875 13.375 -89.171875 C 14.539062 -90.296875 15.976562 -90.859375 17.6875 -90.859375 C 19.46875 -90.859375 20.921875 -90.296875 22.046875 -89.171875 C 23.171875 -88.046875 23.734375 -86.585938 23.734375 -84.796875 L 23.734375 -6.046875 C 23.734375 -4.335938 23.171875 -2.898438 22.046875 -1.734375 C 20.921875 -0.578125 19.46875 0 17.6875 0 Z M 17.6875 0 "/></g></g></g><g fill="#ffffff" fill-opacity="1"><g transform="translate(563.463208, 270.90253)"><g><path d="M 17.5625 0 C 15.851562 0 14.4375 -0.578125 13.3125 -1.734375 C 12.195312 -2.898438 11.640625 -4.335938 11.640625 -6.046875 L 11.640625 -84.796875 C 11.640625 -86.503906 12.21875 -87.941406 13.375 -89.109375 C 14.539062 -90.273438 15.9375 -90.859375 17.5625 -90.859375 C 19.269531 -90.859375 20.703125 -90.273438 21.859375 -89.109375 C 23.023438 -87.941406 23.609375 -86.503906 23.609375 -84.796875 L 23.609375 -12.09375 L 65.71875 -12.09375 C 67.425781 -12.09375 68.863281 -11.507812 70.03125 -10.34375 C 71.195312 -9.1875 71.78125 -7.753906 71.78125 -6.046875 C 71.78125 -4.335938 71.195312 -2.898438 70.03125 -1.734375 C 68.863281 -0.578125 67.425781 0 65.71875 0 Z M 17.5625 0 "/></g></g></g><g fill="#ffffff" fill-opacity="1"><g transform="translate(638.146683, 270.90253)"><g><path d="M 17.5625 0 C 15.851562 0 14.4375 -0.578125 13.3125 -1.734375 C 12.195312 -2.898438 11.640625 -4.335938 11.640625 -6.046875 L 11.640625 -84.796875 C 11.640625 -86.503906 12.21875 -87.941406 13.375 -89.109375 C 14.539062 -90.273438 15.9375 -90.859375 17.5625 -90.859375 C 19.269531 -90.859375 20.703125 -90.273438 21.859375 -89.109375 C 23.023438 -87.941406 23.609375 -86.503906 23.609375 -84.796875 L 23.609375 -12.09375 L 65.71875 -12.09375 C 67.425781 -12.09375 68.863281 -11.507812 70.03125 -10.34375 C 71.195312 -9.1875 71.78125 -7.753906 71.78125 -6.046875 C 71.78125 -4.335938 71.195312 -2.898438 70.03125 -1.734375 C 68.863281 -0.578125 67.425781 0 65.71875 0 Z M 17.5625 0 "/></g></g></g><g fill="#ffffff" fill-opacity="1"><g transform="translate(712.830157, 270.90253)"><g><path d="M 13.84375 1.859375 C 11.664062 1.859375 9.78125 1.066406 8.1875 -0.515625 C 6.601562 -2.109375 5.8125 -3.992188 5.8125 -6.171875 C 5.8125 -8.410156 6.601562 -10.328125 8.1875 -11.921875 C 9.78125 -13.515625 11.664062 -14.3125 13.84375 -14.3125 C 16.007812 -14.3125 17.890625 -13.515625 19.484375 -11.921875 C 21.078125 -10.328125 21.875 -8.410156 21.875 -6.171875 C 21.875 -3.992188 21.097656 -2.109375 19.546875 -0.515625 C 17.992188 1.066406 16.09375 1.859375 13.84375 1.859375 Z M 13.84375 1.859375 "/></g></g></g><g fill="#ffffff" fill-opacity="1"><g transform="translate(740.506976, 270.90253)"><g><path d="M 16.171875 0 C 14.847656 0 13.757812 -0.425781 12.90625 -1.28125 C 12.0625 -2.132812 11.640625 -3.21875 11.640625 -4.53125 L 11.640625 -86.3125 C 11.640625 -87.632812 12.0625 -88.722656 12.90625 -89.578125 C 13.757812 -90.429688 14.847656 -90.859375 16.171875 -90.859375 L 39.4375 -90.859375 C 45.09375 -90.859375 50.148438 -89.597656 54.609375 -87.078125 C 59.078125 -84.554688 62.550781 -81.0625 65.03125 -76.59375 C 67.507812 -72.132812 68.75 -67.039062 68.75 -61.3125 C 68.75 -55.644531 67.507812 -50.597656 65.03125 -46.171875 C 62.550781 -41.753906 59.078125 -38.304688 54.609375 -35.828125 C 50.148438 -33.347656 45.09375 -32.109375 39.4375 -32.109375 L 20.703125 -32.109375 L 20.703125 -4.53125 C 20.703125 -3.21875 20.273438 -2.132812 19.421875 -1.28125 C 18.566406 -0.425781 17.484375 0 16.171875 0 Z M 39.4375 -40.828125 C 43.394531 -40.828125 46.921875 -41.695312 50.015625 -43.4375 C 53.117188 -45.1875 55.539062 -47.613281 57.28125 -50.71875 C 59.03125 -53.820312 59.90625 -57.351562 59.90625 -61.3125 C 59.90625 -65.34375 59.03125 -68.925781 57.28125 -72.0625 C 55.539062 -75.207031 53.117188 -77.671875 50.015625 -79.453125 C 46.921875 -81.234375 43.394531 -82.125 39.4375 -82.125 L 20.703125 -82.125 L 20.703125 -40.828125 Z M 39.4375 -40.828125 "/></g></g></g><g fill="#ffffff" fill-opacity="1"><g transform="translate(811.700576, 270.90253)"><g><path d="M 70.84375 -90.859375 C 72.007812 -90.859375 72.957031 -90.445312 73.6875 -89.625 C 74.425781 -88.8125 74.796875 -87.828125 74.796875 -86.671875 C 74.796875 -85.578125 74.523438 -84.601562 73.984375 -83.75 L 42.234375 -33.625 L 42.234375 -4.53125 C 42.234375 -3.289062 41.804688 -2.222656 40.953125 -1.328125 C 40.097656 -0.441406 39.007812 0 37.6875 0 C 36.445312 0 35.378906 -0.441406 34.484375 -1.328125 C 33.597656 -2.222656 33.15625 -3.289062 33.15625 -4.53125 L 33.15625 -33.625 L 1.515625 -83.75 C 0.890625 -84.757812 0.578125 -85.734375 0.578125 -86.671875 C 0.578125 -87.828125 1.003906 -88.8125 1.859375 -89.625 C 2.710938 -90.445312 3.757812 -90.859375 5 -90.859375 C 5.851562 -90.859375 6.570312 -90.679688 7.15625 -90.328125 C 7.738281 -89.984375 8.300781 -89.421875 8.84375 -88.640625 L 37.8125 -42 L 66.65625 -88.40625 C 67.28125 -89.257812 67.898438 -89.878906 68.515625 -90.265625 C 69.140625 -90.660156 69.914062 -90.859375 70.84375 -90.859375 Z M 70.84375 -90.859375 "/></g></g></g></svg>
